<svg xmlns="http://www.w3.org/2000/svg" viewBox="0 0 708.66 176"><defs><style>.cls-1{fill:#fff;}.cls-2,.cls-3{fill:#27ae4a;}.cls-2{stroke:#27ae4a;stroke-miterlimit:10;}.cls-4{fill:#008bc0;}</style></defs><title>kiterep-logo</title><g id="Outline"><path class="cls-1" d="M676.59,126.11v-6.69c0-6.81-1.58-12.24-4.69-16.13-2.41-3-7-6.6-15-6.6a26.74,26.74,0,0,0-6.39.75H615.19v3.73c-.39-.25-.78-.5-1.19-.74a29.23,29.23,0,0,0-14.84-3.73,31.2,31.2,0,0,0-15.3,3.7c-.31.17-.6.36-.89.53V97.45h-7.33c-9,0-9.66-3.58-.95-6.94,9.57-3.69,19.92-3.65,30-4.85,10.49-1.26,19.9-7.08,29.42-11.48,2-.94,4.08-1.89,6.17-2.74,9.89-4.06,20.41-3.39,30.7-5.27,5.72-1,20.2-1.75,23.71-7.42,3.3-5.32-23.46-6.58-26.38-7.23-12.45-2.76-24.56-2.79-37-5.52-11.68-2.55-21.34-9.64-33.84-10a189.8,189.8,0,0,0-44.68,3.51,66.33,66.33,0,0,1-26,.7c-8.24-1.22-18.88-7.31-27.11-8.68-15.93-2.64-20.06-1.36-36.25-1.36-5.57,0-20.81,7.07-26.36,7.34-8,.39-19.94-2.4-27.33-4.92-7.94-2.7-13.88-5.15-22.24-3.89-5.31.8-10.64,6.55-15.76,8.18-8.62,2.75-16.39,2.23-25.51,3.18-8.79.91-17.71-.49-26.35,2-11.18,3.2-21.84,9.79-33.7,10a32.09,32.09,0,0,1-6.29-.57c-8.91-1.58-18-7-27-7.13-7.21-.1-15.24.91-22.48,1.55-18.69,1.65-37.51,5.69-55.88,9.14-6.53,1.22-18.88,8.22-24.64,2.95-3.73-3.41-2-8.34-1.55-12.81.35-3.3-.33-7-.49-10.31l0-.54-.1-.53c-2.18-11.07-9.6-23.45-22-24.85-7.19-.82-15.43.09-22.65.68A95.31,95.31,0,0,0,77.8,15,201.34,201.34,0,0,0,39,34.9C20,47.16,10.86,75,12.37,96.87c0,7,2.19,19.42,2.44,20.84l0,.18,0,.17,6.27,27,1.24,5.35,5.48.31,32.69,1.88,5.08.29,2-4.65c.4-.92,9.94-22.59,13.9-33.1,1.86-4.94,3.47-9.93,4.68-13.92v1.22H89.4v23.65H86.3v26.05h90.43v-2a23.75,23.75,0,0,0,11.59,2.68,35.4,35.4,0,0,0,7.4-.78,28,28,0,0,0,5.79-1.76l1.38-.63,2.65-1.22c.41.25.82.5,1.24.74a29.55,29.55,0,0,0,14.52,3.65,50.43,50.43,0,0,0,12.58-1.47,39.09,39.09,0,0,0,3.86-1.23v2h29.35c3.8.6,7.62,1.06,11.46,1.35a124.11,124.11,0,0,0,27.05-1,45.45,45.45,0,0,0,5.95-1q1.61-.32,3.21-.67V167h39.84V152.8h.15a22.55,22.55,0,0,0,17.18-7.66c.29.43.59.85.91,1.25,2.41,2.94,7,6.45,14.92,6.45a27.25,27.25,0,0,0,6.13-.67h54.38l.19-.48a19.32,19.32,0,0,0,6.62,1.15,24.67,24.67,0,0,0,9.1-1.67,24.11,24.11,0,0,0,2.59-1.22v2.22h118v-2.61a29.65,29.65,0,0,0,13.8,3.28,50.43,50.43,0,0,0,12.58-1.47,39.05,39.05,0,0,0,3.79-1.2v2h64.65V126.11Z"/></g><g id="Shapes"><path class="cls-1" d="M95.78,76.45h-.17l.06-.14ZM141,124.4l-.48-.67H141Z"/><path class="cls-2" d="M116.81,128.47v16.37H95.25v-11.4h3.1V95.14H95.21V83.78h21.6V122.9l7.51-6.5h-3.55V104.78H142.6V116.4H137l-5.34,4.37v1l8.48,11.7h4.3v11.4H127.46Z"/><path class="cls-2" d="M167.89,133.44H171v11.4H146.85v-11.4h3.06v-17h-3.33V104.78h21.3ZM165,99.9a8.35,8.35,0,0,0,3.08-6.82,8.22,8.22,0,0,0-3-6.69,11.76,11.76,0,0,0-7.74-2.47,11.1,11.1,0,0,0-7.45,2.47,8.33,8.33,0,0,0-2.9,6.69,8.51,8.51,0,0,0,3,6.82,11,11,0,0,0,7.4,2.52A11.67,11.67,0,0,0,165,99.9Z"/><path class="cls-2" d="M201.45,143l-1.38.64a21.9,21.9,0,0,1-4.26,1.25,27.92,27.92,0,0,1-5.87.62q-14.27,0-14.2-15.06l0-14.05h-4V104.78h3.85V96.22l18.2-3.92v12.48h5.68V116.4h-5.68l0,12.07a4.82,4.82,0,0,0,.78,2.67,3.16,3.16,0,0,0,2.88,1.21,19,19,0,0,0,4-.52Z"/><path class="cls-2" d="M212,142.78a19.93,19.93,0,0,1-7.64-7.32,19.4,19.4,0,0,1-2.73-10.09,22.82,22.82,0,0,1,2.58-11,18.67,18.67,0,0,1,7.6-7.59A23.87,23.87,0,0,1,223.52,104a21.92,21.92,0,0,1,11.17,2.75,17.8,17.8,0,0,1,7.08,7.23,21.51,21.51,0,0,1,2.34,10.09,19.85,19.85,0,0,1-.19,2.65,3.6,3.6,0,0,1-.5,1.21q-.17.13-.88-.17H220a10.5,10.5,0,0,0,1.77,6.26,5.63,5.63,0,0,0,4.84,2.49,4.57,4.57,0,0,0,5.23-4.82h11.47v8.37a37,37,0,0,1-9.7,4.19,43,43,0,0,1-10.74,1.23A22.21,22.21,0,0,1,212,142.78Zm8.16-21.37h8a18.72,18.72,0,0,0-.06-2.28,13,13,0,0,0-.43-2.19,3.32,3.32,0,0,0-1.23-1.87,3.77,3.77,0,0,0-2.28-.65,3.26,3.26,0,0,0-3,1.81,8.27,8.27,0,0,0-1,4.09Z"/><path class="cls-2" d="M246.68,104.78H267v6.09l.15.15a12.54,12.54,0,0,1,5.27-4.9,15.49,15.49,0,0,1,7.14-1.76v15.55l-4-.26A8.7,8.7,0,0,0,269.1,122q-2.35,2.37-2.35,6.89v4.52h5.12v11.4H246.68v-11.4h3v-17h-3Z"/><path class="cls-2" d="M290.17,142.78a19.93,19.93,0,0,1-7.64-7.32,19.4,19.4,0,0,1-2.73-10.09,22.82,22.82,0,0,1,2.58-11,18.67,18.67,0,0,1,7.6-7.59A23.87,23.87,0,0,1,301.73,104a21.92,21.92,0,0,1,11.17,2.75A17.8,17.8,0,0,1,320,114a21.51,21.51,0,0,1,2.34,10.09,19.85,19.85,0,0,1-.19,2.65,3.6,3.6,0,0,1-.5,1.21q-.17.13-.88-.17h-22.5a10.5,10.5,0,0,0,1.77,6.26,5.63,5.63,0,0,0,4.84,2.49,4.57,4.57,0,0,0,5.23-4.82h11.47v8.37a37,37,0,0,1-9.7,4.19,43,43,0,0,1-10.74,1.23A22.21,22.21,0,0,1,290.17,142.78Zm8.16-21.37h8a18.72,18.72,0,0,0-.06-2.28,13,13,0,0,0-.43-2.19,3.32,3.32,0,0,0-1.23-1.87,3.77,3.77,0,0,0-2.28-.65,3.26,3.26,0,0,0-3,1.81,8.27,8.27,0,0,0-1,4.09Z"/><path class="cls-2" d="M323.7,159.67V148.35h3.14V116.4h-2.77V104.78h21.08v4.33h.37a16,16,0,0,1,4.91-3.91,13.71,13.71,0,0,1,6-1.21A15.25,15.25,0,0,1,369,110.31a22.12,22.12,0,0,1,3.2,6.58,26.53,26.53,0,0,1,1.12,7.74,27.06,27.06,0,0,1-1.08,7.68,23.32,23.32,0,0,1-3.12,6.65,14.91,14.91,0,0,1-5.34,4.75,15.36,15.36,0,0,1-7.38,1.78,14.84,14.84,0,0,1-3.64-.43,12.72,12.72,0,0,1-3.33-1.38q-1.63-1-2.37-1.49t-2.28-1.77v8h4.15v11.25Zm21.11-30a3.42,3.42,0,0,0,.39,1,7.86,7.86,0,0,0,.8,1.18,3.72,3.72,0,0,0,1.42,1,5.23,5.23,0,0,0,2.13.41,5.72,5.72,0,0,0,3.06-.78,5,5,0,0,0,1.92-2.13,11.28,11.28,0,0,0,.93-2.78,16.11,16.11,0,0,0,.28-3.08q0-7.25-6.09-7.25a5.45,5.45,0,0,0-2.07.37,4.7,4.7,0,0,0-1.42.84,5,5,0,0,0-.88,1.08,5.35,5.35,0,0,0-.45.84q-.08.22-.11.37v8.52Z"/><path class="cls-2" d="M402.75,139a13.31,13.31,0,0,1-5.51,4.84,17.93,17.93,0,0,1-7.87,1.66q-12.33,0-12.33-15.06V116.4h-3V104.78H395.5v23.69a5,5,0,0,0,1,3.23,3,3,0,0,0,2.35,1.25,3.48,3.48,0,0,0,2.82-1.29,4.85,4.85,0,0,0,1.07-3.19V116.4h-3V104.78h21.49v28.66H424v11.4h-21.3Z"/><path class="cls-2" d="M446.07,108.78q5.87-4.75,11.4-4.75a15.45,15.45,0,0,1,6.13,1.2,14.35,14.35,0,0,1,4.76,3.23,19.56,19.56,0,0,1,3.33,4.71,23.61,23.61,0,0,1,2,5.61,27.33,27.33,0,0,1,.65,6,28.18,28.18,0,0,1-.67,6.2,21.84,21.84,0,0,1-2.11,5.64,18.9,18.9,0,0,1-3.49,4.63,15.06,15.06,0,0,1-5,3.14,17.3,17.3,0,0,1-6.41,1.16,11.93,11.93,0,0,1-5.27-1.2,44.59,44.59,0,0,1-5-3.29l-1.49,3.81H428.06V95.33h-3.14V83.89h21.15Zm.15,21.26.56.64a6.7,6.7,0,0,0,1.87,1.27,5.78,5.78,0,0,0,2.62.64,5.16,5.16,0,0,0,4.07-1.85,7.82,7.82,0,0,0,1.61-5.29q0-1.16-.09-2.22a13.44,13.44,0,0,0-.45-2.35,7.53,7.53,0,0,0-1-2.19,5.08,5.08,0,0,0-1.66-1.53,4.83,4.83,0,0,0-2.52-.64,4.4,4.4,0,0,0-1.81.39,5.43,5.43,0,0,0-1.4.86,8.47,8.47,0,0,0-1,1.08,7.46,7.46,0,0,0-.62.86l-.21.39Z"/><path class="cls-2" d="M497,133.44h2.91v11.4H475.7v-11.4h2.77V95.62h-3.14V83.93H497Z"/><path class="cls-2" d="M524.27,133.44h3.14v11.4H503.23v-11.4h3.06v-17H503V104.78h21.3ZM521.41,99.9a8.35,8.35,0,0,0,3.08-6.82,8.22,8.22,0,0,0-3-6.69,11.76,11.76,0,0,0-7.74-2.47,11.1,11.1,0,0,0-7.46,2.47,8.33,8.33,0,0,0-2.9,6.69,8.5,8.5,0,0,0,3,6.82,11,11,0,0,0,7.4,2.52A11.67,11.67,0,0,0,521.41,99.9Z"/><path class="cls-2" d="M551.47,128.47v16.37H529.91v-11.4H533V95.14h-3.14V83.78h21.6V122.9l7.51-6.5h-3.55V104.78h21.82V116.4h-5.64l-5.34,4.37v1l8.48,11.7h4.3v11.4H562.12Z"/><path class="cls-2" d="M589.21,142.78a19.93,19.93,0,0,1-7.64-7.32,19.4,19.4,0,0,1-2.73-10.09,22.82,22.82,0,0,1,2.58-11,18.67,18.67,0,0,1,7.6-7.59A23.87,23.87,0,0,1,600.78,104,21.92,21.92,0,0,1,612,106.78,17.79,17.79,0,0,1,619,114a21.52,21.52,0,0,1,2.34,10.09,19.91,19.91,0,0,1-.19,2.65,3.6,3.6,0,0,1-.5,1.21q-.17.13-.88-.17H597.3a10.5,10.5,0,0,0,1.77,6.26,5.63,5.63,0,0,0,4.84,2.49,4.57,4.57,0,0,0,5.23-4.82h11.47v8.37a37,37,0,0,1-9.7,4.19,42.94,42.94,0,0,1-10.74,1.23A22.21,22.21,0,0,1,589.21,142.78Zm8.17-21.37h8a18.72,18.72,0,0,0-.06-2.28,12.91,12.91,0,0,0-.43-2.19,3.32,3.32,0,0,0-1.23-1.87,3.77,3.77,0,0,0-2.28-.65,3.26,3.26,0,0,0-3,1.81,8.27,8.27,0,0,0-1,4.09Z"/><path class="cls-2" d="M645.18,110.61a13.57,13.57,0,0,1,5.51-4.88,17.6,17.6,0,0,1,7.87-1.7q12.33,0,12.33,15.4v14h3v11.4H652.43V121.41a4.33,4.33,0,0,0-1-3,3,3,0,0,0-2.35-1.16,3.54,3.54,0,0,0-2.82,1.23,4.42,4.42,0,0,0-1.07,3v11.92h3.29v11.4H623.88v-11.4H627v-17h-2.84V104.78h21Z"/><path class="cls-3" d="M100.25,52.71s.64-3.59-5.54-6.27S64.53,42.71,24.91,64.55c0,0-6.14,20.35-5.21,32.08,0,0,33.9-14.6,53.36-10.55,0,0,8.57,1.42,8.45,5.13C81.51,91.21,92.35,62.73,100.25,52.71Z"/><path class="cls-3" d="M128.07,31.39h.1s8.31-9.94-1.17-14.84c0,0,10.2,2.11,13.47,18.7,0,0-2.25,6.72-5.08,8.29-2.3,1.27-20.41,2.76-27.21,3.28C119.16,31.88,127.09,31.39,128.07,31.39Z"/><path class="cls-4" d="M61,145.31l13.75-32.73s.41-2.33-13.42-1.79S22,116.4,22,116.4l6.27,27Z"/><path class="cls-4" d="M108.22,40.41c4.52-7.75,15.91-12.81,15.91-12.81s3.82-5.85-3.27-8.89C98.43,9.07,61.3,29.3,43,41.06,33.13,47.4,32.39,51.66,32,52.5c0,0,44.38-26.18,71.58-19.67C109.45,34.24,108.22,40.41,108.22,40.41Z"/><path class="cls-4" d="M102.91,54.79c6.91-.77,30.29.9,33-.79s3.5-1.74,5.24-5.11c0,0-1.58,16.65-9.61,22.67,0,0-11.67-1.06-14.91-.75-9.31.91-13.38,3.4-13.38,3.4L97,65.67C99,61.57,101,58,102.91,54.79Z"/><rect class="cls-1" x="91.04" y="70.84" width="5.97" height="9.92"/><rect class="cls-1" x="80.36" y="96.63" width="9.35" height="5.79"/><path class="cls-4" d="M121.41,66.5l0,0C121.25,66.24,121.09,66.5,121.41,66.5Z"/><path class="cls-4" d="M590.18,53.77c2.19,1.2,3.45,3,2.88,5.5s-3.16,2.91-4,4.81c-2.14,5,8.17,3,9.75,5.3,2.62,3.72-5.83,8.51-8.32,9.4-4.82,1.72-9.89,2.71-14.51,5-.56.28-1.2.75-1.09,1.37q7.86-1.68,15.82-2.88a74.22,74.22,0,0,0,9-1.7A65.25,65.25,0,0,0,607,77.87c10.36-4.3,20.65-8.78,31.42-12,3.16-.94,6.43-2,9.71-2.76,4.76-1.11,9.16-2.16,14.12-2.2,5.8,0,12.23.68,17.94-.36.55-.1,1.15-.57,1-1.1s-.67-.57-1.11-.63c-8-1.15-16-.71-24-1.16a229.73,229.73,0,0,1-32.25-3.85A192.57,192.57,0,0,1,599,46.24c-10.61-3.88-20.84-1.6-31.66.92a163.45,163.45,0,0,1-26.74,4.23c-7,.44-13.8-2.17-20.51-3.65-7.45-1.64-14.91-3.32-22.23-5.48a72.4,72.4,0,0,0-15.18-3,29.4,29.4,0,0,0-8.88.38c-2.87.66-5.63,2-8.44,2.92a84.24,84.24,0,0,1-10.91,2.9,47,47,0,0,1-5.69.7c-.84,0-1.68-.07-2.52,0A6.5,6.5,0,0,0,444,47c-1.76.83-3.93,2-5.93,1.94-4.3-.22-8.26-2.33-12.34-3.49-3.6-1-7.53-.87-11-2.19-2.9-1.09-5.22-2.65-8.48-2s-5.35,1.15-8.61.14c-2.58-.8-5.16-1.85-7.86-1.83-5.54,0-9.79,4.5-14.55,6.73-5.27,2.47-10.6,2.86-16.37,2.87-8.87,0-17.72.32-26.55-.61-2.64-.28-5.1-.56-7.49.85-1.68,1-2.36,3-3.89,4.18A17,17,0,0,1,315,56.16c-4.3,1.2-8.88,1.25-13.3,1.26-5.34,0-11.3,0-16.47,1.34-4.57,1.17-9.21,3.43-14,2.86-5.12-.6-7.68-4.93-12.21-7.11a20,20,0,0,0-2.2-.9C251,51.28,244.24,50.76,238,51.3c-8.8.75-17.49,3.15-26.08,5.13-10.43,2.4-20.86,4.85-31.44,6.49-4.78.74-11.7-1-15.89,1.87,6.4,1.82,15.15.82,21.69,0a156,156,0,0,0,20-4.18l13.67-3.48c4.29-1.09,9-2.95,13.38-3.31-.62,2.8-7.19,5.93-9.53,7.51-2.68,1.82-11.73,6.74-10.72,10.86.66,2.7,11.1,2.75,13.39,3.12a103.72,103.72,0,0,0,19.31.87c6.33-.18,11.66,1.39,17.71,3.18,9.09,2.7,18.53,4,27.93,5.31,19.07,2.58,38.43,5,57.51,2.39a19.19,19.19,0,0,1-4.14-.41q-2.27-.24-4.53-.53-4.52-.57-9-1.29l-1.77-.3c-4.84-.84-9.64-2-14.5-2.71-.44-.06-2.81-.3-2.74-1a.31.31,0,0,1,.07-.15,2.12,2.12,0,0,1,1.61-.72c2.35-.14,4.76-.11,7.11-.11a5.52,5.52,0,0,0,2.13-.32,9.42,9.42,0,0,0-4.56-1.08c-6.81-.4-13.64-.27-20.46-.54-3.52-.13-19.85-3-18.79-8.19.66-3.19,3.93-5.31,7.17-5.7A17.67,17.67,0,0,1,296.31,66c2.54,1.31,4.88,4.21,8,3.84,1.63-.19,5.76-4.15,7.17-5.26s2.91-2.87,4.53-3.67,3.33-1.28,4.85-2.49A14.18,14.18,0,0,0,324.17,54c.34-.61.51-1.45.87-2,2.33-3.64,12.72,7.27,14.09,9.17,1.78,2.47,3.15,5.92,1.42,8.43-.51.74-1.25,1.31-1.74,2.06a2.12,2.12,0,0,0-.1,2.51c3,1.35,6.21-.23,8.72-1.87q1.07-.7,2.18-1.34a70.34,70.34,0,0,1,15.85-6.34c2.75-.79,5.51-1.51,8.27-2.24,1.23-.33,4.84-1,5-2.6.24-2.06-8.55-2.33-9.89-2.41q3-.32,6-.58c12.92-1.12,26-.49,38.71-3.52,4.21-1,8.32-2.58,12.69-2.78a24.3,24.3,0,0,1,11.34,2.21c3.86,2,6.35,5.29,10.84,6.43,7.46,1.9,13.9,5.11,21.64,5.35a53.35,53.35,0,0,0,8.3-.61l7.89-1-11.13-1.62a56.33,56.33,0,0,1-12-2.62c-2.71-1-4.53-2.9-6.88-4.44-2-1.34-4.34-2.43-6.42-3.77a.54.54,0,0,1-.26-.27.51.51,0,0,1,.15-.43c1-1.31,2.75-1.84,4.35-2.3,2.82-.81,5.66-1.53,8.47-2.35,2.65-.77,5.27-1.64,7.88-2.52,1.41-.48,2.79-1.08,4.23-1.45a14.39,14.39,0,0,1,4.32-.25c3.26.12,6.56-.14,9.77.54,6.66,1.4,12.29,4.66,18,7.79,6.5,3.55,13,7.3,19.86,10,2.94,1.15,4,.16,5.91-1.86a11.08,11.08,0,0,1,5.57-2.72,125.21,125.21,0,0,1,12.66-2.3c2.46-.33,4.9-.68,7.34-1.13,5-.93,10.05-2,15.19-2.14C579.76,48.83,584.53,50.66,590.18,53.77Z"/></g></svg>